:FULLY-SPECIFIED
:FORCE-ALL-JOINTS-BE-3DOF
:DEGREES
374
root 6.18429 16.5206 -15.7948 8.1043 -7.41219 -4.4178
lfemur -25.4859 19.0295 -4.78043
ltibia 67.8337 0 0
lfoot 0.338407 -6.05848 0
ltoes 16.0836 0 0
rfemur -30.22 -11.056 30.2649
rtibia 42.0329 0 0
rfoot -19.5177 1.73672 0
rtoes 10.7217 0 0
lowerback 3.07765 0.697821 1.59142
upperback 2.1955 0.97631 1.61889
thorax 0.565734 0.490943 0.729797
lowerneck -7.61805 -3.4313 0.833191
upperneck 0.501736 -4.76095 3.47854
head 1.52872 -2.30032 0.772054
lclavicle 4.26509e-15 7.97569e-15 0
lhumerus -43.0025 -23.0477 100.439
lradius 56.8801 0 0
lwrist 16.1047 0 0
lhand -10.5883 6.60703 0
lfingers 7.12502 0 0
lthumb 15.4098 35.8779 0
rclavicle 4.26509e-15 7.97569e-15 0
rhumerus -39.2001 7.82436 -92.9105
rradius 70.9097 0 0
rwrist 4.74346 0 0
rhand -29.0682 -33.0273 0
rfingers 7.12502 0 0
rthumb -2.40877 -782.906 0
375
root 6.13867 16.5251 -15.676 8.32998 -9.08859 -4.71435
lfemur -28.3314 19.2377 -6.09331
ltibia 65.6504 0 0
lfoot -0.821869 -4.74172 0
ltoes 15.5574 0 0
rfemur -28.8586 -9.55283 30.3337
rtibia 41.6358 0 0
rfoot -19.9192 1.50117 0
rtoes 11.7016 0 0
lowerback 3.33127 0.921496 1.90474
upperback 2.23563 1.28993 1.49047
thorax 0.486792 0.65047 0.406217
lowerneck -7.57702 -3.10943 1.21265
upperneck 0.388001 -4.35423 3.26658
head 1.47229 -2.10343 0.658506
lclavicle 4.65075e-15 6.321e-15 0
lhumerus -42.5626 -23.0613 99.4959
lradius 56.6081 0 0
lwrist 16.2836 0 0
lhand -12.1385 5.99082 0
lfingers 7.12502 0 0
lthumb 13.9149 35.3455 0
rclavicle 4.65075e-15 6.321e-15 0
rhumerus -38.9574 8.77286 -92.9775
rradius 69.1716 0 0
rwrist 5.50262 0 0
rhand -26.3845 -30.9217 0
rfingers 7.12502 0 0
rthumb 0.178198 -780.713 0
376
root 6.09306 16.5295 -15.5572 8.58526 -11.2241 -5.09398
lfemur -31.7752 19.451 -7.64696
ltibia 63.0542 0 0
lfoot -2.22364 -3.20396 0
ltoes 15.0139 0 0
rfemur -27.1806 -7.76606 30.4696
rtibia 41.1851 0 0
rfoot -20.4172 1.26628 0
rtoes 12.9088 0 0
lowerback 3.64377 1.2021 2.28719
upperback 2.28295 1.68239 1.33664
thorax 0.386783 0.850027 0.0143631
lowerneck -7.53135 -2.70293 1.67969
upperneck 0.266449 -3.84053 3.00283
head 1.40891 -1.85407 0.517843
lclavicle 5.155e-15 4.29269e-15 0
lhumerus -42.0275 -23.0365 98.3336
lradius 56.2703 0 0
lwrist 16.4945 0 0
lhand -14.04 5.23666 0
lfingers 7.12502 0 0
lthumb 12.0815 34.6975 0
rclavicle 5.155e-15 4.29269e-15 0
rhumerus -38.7285 9.88194 -93.1162
rradius 67.042 0 0
rwrist 6.4203 0 0
rhand -23.2765 -28.4421 0
rfingers 7.12502 0 0
rthumb 3.17519 -778.144 0
377
root 6.04744 16.534 -15.4383 8.87159 -13.8679 -5.56627
lfemur -35.8718 19.6687 -9.46007
ltibia 60.0152 0 0
lfoot -3.88811 -1.433 0
ltoes 14.4626 0 0
rfemur -25.1544 -5.67164 30.6843
rtibia 40.6744 0 0
rfoot -21.0244 1.03737 0
rtoes 14.3641 0 0
lowerback 4.02102 1.54533 2.74555
upperback 2.33808 2.16154 1.15557
thorax 0.263464 1.0936 -0.451726
lowerneck -7.48119 -2.20294 2.24239
upperneck 0.137473 -3.20862 2.68201
head 1.33832 -1.54667 0.347415
lclavicle 5.79529e-15 1.85684e-15 0
lhumerus -41.388 -22.9663 96.9309
lradius 55.8607 0 0
lwrist 16.7395 0 0
lhand -16.3272 4.33125 0
lfingers 7.12502 0 0
lthumb 9.87654 33.9231 0
rclavicle 5.79529e-15 1.85684e-15 0
rhumerus -38.5201 11.1623 -93.3386
rradius 64.4837 0 0
rwrist 7.51059 0 0
rhand -19.7199 -25.5624 0
rfingers 7.12502 0 0
rthumb 6.60586 -775.176 0
